<svg width="411mm" height="333mm" viewBox="0 0 411 333" xmlns="http://www.w3.org/2000/svg" version="1.1" preserveAspectRatio="xMidYMid meet"><g id="svgGroup" stroke-linecap="round" fill-rule="evenodd" font-size="9pt" stroke="#000" stroke-width="0.25mm" fill="none" style="stroke:#000;stroke-width:0.25mm;fill:none"><path d="M 0 291 L 0 304.195 L 5 304.195 L 5 319.805 L 0 319.805 L 0 333 L 20.976 333 L 20.976 328 L 36.585 328 L 36.585 333 L 52.195 333 L 52.195 328 L 67.805 328 L 67.805 333 L 83.415 333 L 83.415 328 L 99.024 328 L 99.024 333 L 114.634 333 L 120 333 L 120 319.805 L 115 319.805 L 115 304.195 L 120 304.195 L 120 291 L 99.024 291 L 99.024 296 L 83.415 296 L 83.415 291 L 67.805 291 L 67.805 296 L 52.195 296 L 52.195 291 L 36.585 291 L 36.585 296 L 20.976 296 L 20.976 291 L 5.366 291 L 0 291 Z" id="front_outsideCutPath" stroke="#FF0000" stroke-width="0.1" style="stroke:#FF0000;stroke-width:0.1" vector-effect="non-scaling-stroke"/><path d="M 128 291 L 128 304.195 L 123 304.195 L 123 319.805 L 128 319.805 L 128 333 L 135.256 333 L 135.256 328 L 150.866 328 L 150.866 333 L 166.476 333 L 166.476 328 L 182.085 328 L 182.085 333 L 197.695 333 L 197.695 328 L 213.305 328 L 213.305 333 L 228.915 333 L 228.915 328 L 244.524 328 L 244.524 333 L 260.134 333 L 260.134 328 L 275.744 328 L 275.744 333 L 283 333 L 283 319.805 L 288 319.805 L 288 304.195 L 283 304.195 L 283 291 L 275.744 291 L 275.744 296 L 260.134 296 L 260.134 291 L 244.524 291 L 244.524 296 L 228.915 296 L 228.915 291 L 213.305 291 L 213.305 296 L 197.695 296 L 197.695 291 L 182.085 291 L 182.085 296 L 166.476 296 L 166.476 291 L 150.866 291 L 150.866 296 L 135.256 296 L 135.256 291 L 128 291 Z" id="left_outsideCutPath" stroke="#FF0000" stroke-width="0.1" style="stroke:#FF0000;stroke-width:0.1" vector-effect="non-scaling-stroke"/><path d="M 296 173 L 296 180.256 L 291 180.256 L 291 195.866 L 296 195.866 L 296 211.476 L 291 211.476 L 291 227.085 L 296 227.085 L 296 242.695 L 291 242.695 L 291 258.305 L 296 258.305 L 296 273.915 L 291 273.915 L 291 289.524 L 296 289.524 L 296 305.134 L 291 305.134 L 291 320.744 L 296 320.744 L 296 328 L 311.976 328 L 311.976 333 L 327.585 333 L 327.585 328 L 343.195 328 L 343.195 333 L 358.805 333 L 358.805 328 L 374.415 328 L 374.415 333 L 390.024 333 L 390.024 328 L 405.634 328 L 406 328 L 406 320.744 L 411 320.744 L 411 305.134 L 406 305.134 L 406 289.524 L 411 289.524 L 411 273.915 L 406 273.915 L 406 258.305 L 411 258.305 L 411 242.695 L 406 242.695 L 406 227.085 L 411 227.085 L 411 211.476 L 406 211.476 L 406 195.866 L 411 195.866 L 411 180.256 L 406 180.256 L 406 173 L 390.024 173 L 390.024 168 L 374.415 168 L 374.415 173 L 358.805 173 L 358.805 168 L 343.195 168 L 343.195 173 L 327.585 173 L 327.585 168 L 311.976 168 L 311.976 173 L 296.366 173 L 296 173 Z" id="top_outsideCutPath" stroke="#FF0000" stroke-width="0.1" style="stroke:#FF0000;stroke-width:0.1" vector-effect="non-scaling-stroke"/><path d="M 0 246 L 0 259.195 L 5 259.195 L 5 274.805 L 0 274.805 L 0 288 L 20.976 288 L 20.976 283 L 36.585 283 L 36.585 288 L 52.195 288 L 52.195 283 L 67.805 283 L 67.805 288 L 83.415 288 L 83.415 283 L 99.024 283 L 99.024 288 L 114.634 288 L 120 288 L 120 274.805 L 115 274.805 L 115 259.195 L 120 259.195 L 120 246 L 99.024 246 L 99.024 251 L 83.415 251 L 83.415 246 L 67.805 246 L 67.805 251 L 52.195 251 L 52.195 246 L 36.585 246 L 36.585 251 L 20.976 251 L 20.976 246 L 5.366 246 L 0 246 Z" id="back_outsideCutPath" stroke="#FF0000" stroke-width="0.1" style="stroke:#FF0000;stroke-width:0.1" vector-effect="non-scaling-stroke"/><path d="M 128 246 L 128 259.195 L 123 259.195 L 123 274.805 L 128 274.805 L 128 288 L 135.256 288 L 135.256 283 L 150.866 283 L 150.866 288 L 166.476 288 L 166.476 283 L 182.085 283 L 182.085 288 L 197.695 288 L 197.695 283 L 213.305 283 L 213.305 288 L 228.915 288 L 228.915 283 L 244.524 283 L 244.524 288 L 260.134 288 L 260.134 283 L 275.744 283 L 275.744 288 L 283 288 L 283 274.805 L 288 274.805 L 288 259.195 L 283 259.195 L 283 246 L 275.744 246 L 275.744 251 L 260.134 251 L 260.134 246 L 244.524 246 L 244.524 251 L 228.915 251 L 228.915 246 L 213.305 246 L 213.305 251 L 197.695 251 L 197.695 246 L 182.085 246 L 182.085 251 L 166.476 251 L 166.476 246 L 150.866 246 L 150.866 251 L 135.256 251 L 135.256 246 L 128 246 Z" id="right_outsideCutPath" stroke="#FF0000" stroke-width="0.1" style="stroke:#FF0000;stroke-width:0.1" vector-effect="non-scaling-stroke"/><path d="M 296 5 L 296 12.256 L 291 12.256 L 291 27.866 L 296 27.866 L 296 43.476 L 291 43.476 L 291 59.085 L 296 59.085 L 296 74.695 L 291 74.695 L 291 90.305 L 296 90.305 L 296 105.915 L 291 105.915 L 291 121.524 L 296 121.524 L 296 137.134 L 291 137.134 L 291 152.744 L 296 152.744 L 296 160 L 311.976 160 L 311.976 165 L 327.585 165 L 327.585 160 L 343.195 160 L 343.195 165 L 358.805 165 L 358.805 160 L 374.415 160 L 374.415 165 L 390.024 165 L 390.024 160 L 405.634 160 L 406 160 L 406 152.744 L 411 152.744 L 411 137.134 L 406 137.134 L 406 121.524 L 411 121.524 L 411 105.915 L 406 105.915 L 406 90.305 L 411 90.305 L 411 74.695 L 406 74.695 L 406 59.085 L 411 59.085 L 411 43.476 L 406 43.476 L 406 27.866 L 411 27.866 L 411 12.256 L 406 12.256 L 406 5 L 390.024 5 L 390.024 0 L 374.415 0 L 374.415 5 L 358.805 5 L 358.805 0 L 343.195 0 L 343.195 5 L 327.585 5 L 327.585 0 L 311.976 0 L 311.976 5 L 296.366 5 L 296 5 Z" id="bottom_outsideCutPath" stroke="#FF0000" stroke-width="0.1" style="stroke:#FF0000;stroke-width:0.1" vector-effect="non-scaling-stroke"/></g></svg>