<svg width="736mm" height="703mm" viewBox="0 0 736 703" xmlns="http://www.w3.org/2000/svg" version="1.1" preserveAspectRatio="xMidYMid meet"><g id="svgGroup" stroke-linecap="round" fill-rule="evenodd" font-size="9pt" stroke="#000" stroke-width="0.25mm" fill="none" style="stroke:#000;stroke-width:0.25mm;fill:none"><path d="M 0 643 L 0 658.375 L 5 658.375 L 5 687.625 L 0 687.625 L 0 703 L 21.875 703 L 21.875 698 L 51.125 698 L 51.125 703 L 80.375 703 L 80.375 698 L 109.625 698 L 109.625 703 L 138.875 703 L 138.875 698 L 168.125 698 L 168.125 703 L 190 703 L 190 687.625 L 185 687.625 L 185 658.375 L 190 658.375 L 190 643 L 168.125 643 L 168.125 648 L 138.875 648 L 138.875 643 L 109.625 643 L 109.625 648 L 80.375 648 L 80.375 643 L 51.125 643 L 51.125 648 L 21.875 648 L 21.875 643 L 0 643 Z" id="front_outsideCutPath" stroke="#FF0000" stroke-width="0.1" style="stroke:#FF0000;stroke-width:0.1" vector-effect="non-scaling-stroke"/><path d="M 198 643 L 198 658.375 L 193 658.375 L 193 687.625 L 198 687.625 L 198 703 L 236.375 703 L 236.375 698 L 265.625 698 L 265.625 703 L 294.875 703 L 294.875 698 L 324.125 698 L 324.125 703 L 353.375 703 L 353.375 698 L 382.625 698 L 382.625 703 L 411.875 703 L 411.875 698 L 441.125 698 L 441.125 703 L 470.375 703 L 470.375 698 L 499.625 698 L 499.625 703 L 528.875 703 L 538 703 L 538 687.625 L 543 687.625 L 543 658.375 L 538 658.375 L 538 643 L 499.625 643 L 499.625 648 L 470.375 648 L 470.375 643 L 441.125 643 L 441.125 648 L 411.875 648 L 411.875 643 L 382.625 643 L 382.625 648 L 353.375 648 L 353.375 643 L 324.125 643 L 324.125 648 L 294.875 648 L 294.875 643 L 265.625 643 L 265.625 648 L 236.375 648 L 236.375 643 L 207.125 643 L 198 643 Z" id="left_outsideCutPath" stroke="#FF0000" stroke-width="0.1" style="stroke:#FF0000;stroke-width:0.1" vector-effect="non-scaling-stroke"/><path d="M 551 358 L 551 396.375 L 546 396.375 L 546 425.625 L 551 425.625 L 551 454.875 L 546 454.875 L 546 484.125 L 551 484.125 L 551 513.375 L 546 513.375 L 546 542.625 L 551 542.625 L 551 571.875 L 546 571.875 L 546 601.125 L 551 601.125 L 551 630.375 L 546 630.375 L 546 659.625 L 551 659.625 L 551 688.875 L 551 698 L 567.875 698 L 567.875 703 L 597.125 703 L 597.125 698 L 626.375 698 L 626.375 703 L 655.625 703 L 655.625 698 L 684.875 698 L 684.875 703 L 714.125 703 L 714.125 698 L 731 698 L 731 659.625 L 736 659.625 L 736 630.375 L 731 630.375 L 731 601.125 L 736 601.125 L 736 571.875 L 731 571.875 L 731 542.625 L 736 542.625 L 736 513.375 L 731 513.375 L 731 484.125 L 736 484.125 L 736 454.875 L 731 454.875 L 731 425.625 L 736 425.625 L 736 396.375 L 731 396.375 L 731 367.125 L 731 358 L 714.125 358 L 714.125 353 L 684.875 353 L 684.875 358 L 655.625 358 L 655.625 353 L 626.375 353 L 626.375 358 L 597.125 358 L 597.125 353 L 567.875 353 L 567.875 358 L 551 358 Z" id="top_outsideCutPath" stroke="#FF0000" stroke-width="0.1" style="stroke:#FF0000;stroke-width:0.1" vector-effect="non-scaling-stroke"/><path d="M 0 580 L 0 595.375 L 5 595.375 L 5 624.625 L 0 624.625 L 0 640 L 21.875 640 L 21.875 635 L 51.125 635 L 51.125 640 L 80.375 640 L 80.375 635 L 109.625 635 L 109.625 640 L 138.875 640 L 138.875 635 L 168.125 635 L 168.125 640 L 190 640 L 190 624.625 L 185 624.625 L 185 595.375 L 190 595.375 L 190 580 L 168.125 580 L 168.125 585 L 138.875 585 L 138.875 580 L 109.625 580 L 109.625 585 L 80.375 585 L 80.375 580 L 51.125 580 L 51.125 585 L 21.875 585 L 21.875 580 L 0 580 Z" id="back_outsideCutPath" stroke="#FF0000" stroke-width="0.1" style="stroke:#FF0000;stroke-width:0.1" vector-effect="non-scaling-stroke"/><path d="M 198 580 L 198 595.375 L 193 595.375 L 193 624.625 L 198 624.625 L 198 640 L 236.375 640 L 236.375 635 L 265.625 635 L 265.625 640 L 294.875 640 L 294.875 635 L 324.125 635 L 324.125 640 L 353.375 640 L 353.375 635 L 382.625 635 L 382.625 640 L 411.875 640 L 411.875 635 L 441.125 635 L 441.125 640 L 470.375 640 L 470.375 635 L 499.625 635 L 499.625 640 L 528.875 640 L 538 640 L 538 624.625 L 543 624.625 L 543 595.375 L 538 595.375 L 538 580 L 499.625 580 L 499.625 585 L 470.375 585 L 470.375 580 L 441.125 580 L 441.125 585 L 411.875 585 L 411.875 580 L 382.625 580 L 382.625 585 L 353.375 585 L 353.375 580 L 324.125 580 L 324.125 585 L 294.875 585 L 294.875 580 L 265.625 580 L 265.625 585 L 236.375 585 L 236.375 580 L 207.125 580 L 198 580 Z" id="right_outsideCutPath" stroke="#FF0000" stroke-width="0.1" style="stroke:#FF0000;stroke-width:0.1" vector-effect="non-scaling-stroke"/><path d="M 551 5 L 551 43.375 L 546 43.375 L 546 72.625 L 551 72.625 L 551 101.875 L 546 101.875 L 546 131.125 L 551 131.125 L 551 160.375 L 546 160.375 L 546 189.625 L 551 189.625 L 551 218.875 L 546 218.875 L 546 248.125 L 551 248.125 L 551 277.375 L 546 277.375 L 546 306.625 L 551 306.625 L 551 335.875 L 551 345 L 567.875 345 L 567.875 350 L 597.125 350 L 597.125 345 L 626.375 345 L 626.375 350 L 655.625 350 L 655.625 345 L 684.875 345 L 684.875 350 L 714.125 350 L 714.125 345 L 731 345 L 731 306.625 L 736 306.625 L 736 277.375 L 731 277.375 L 731 248.125 L 736 248.125 L 736 218.875 L 731 218.875 L 731 189.625 L 736 189.625 L 736 160.375 L 731 160.375 L 731 131.125 L 736 131.125 L 736 101.875 L 731 101.875 L 731 72.625 L 736 72.625 L 736 43.375 L 731 43.375 L 731 14.125 L 731 5 L 714.125 5 L 714.125 0 L 684.875 0 L 684.875 5 L 655.625 5 L 655.625 0 L 626.375 0 L 626.375 5 L 597.125 5 L 597.125 0 L 567.875 0 L 567.875 5 L 551 5 Z" id="bottom_outsideCutPath" stroke="#FF0000" stroke-width="0.1" style="stroke:#FF0000;stroke-width:0.1" vector-effect="non-scaling-stroke"/></g></svg>