<svg width="736mm" height="703mm" viewBox="0 0 736 703" xmlns="http://www.w3.org/2000/svg" version="1.1" preserveAspectRatio="xMidYMid meet"><g id="svgGroup" stroke-linecap="round" fill-rule="evenodd" font-size="9pt" stroke="#000" stroke-width="0.25mm" fill="none" style="stroke:#000;stroke-width:0.25mm;fill:none"><path d="M 0 643 L 0 658.375 L 3 658.375 L 3 687.625 L 0 687.625 L 0 703 L 21.875 703 L 21.875 700 L 51.125 700 L 51.125 703 L 80.375 703 L 80.375 700 L 109.625 700 L 109.625 703 L 138.875 703 L 138.875 700 L 168.125 700 L 168.125 703 L 190 703 L 190 687.625 L 187 687.625 L 187 658.375 L 190 658.375 L 190 643 L 168.125 643 L 168.125 646 L 138.875 646 L 138.875 643 L 109.625 643 L 109.625 646 L 80.375 646 L 80.375 643 L 51.125 643 L 51.125 646 L 21.875 646 L 21.875 643 L 0 643 Z" id="front_outsideCutPath" stroke="#FF0000" stroke-width="0.1" style="stroke:#FF0000;stroke-width:0.1" vector-effect="non-scaling-stroke"/><path d="M 196 643 L 196 658.375 L 193 658.375 L 193 687.625 L 196 687.625 L 196 703 L 236.375 703 L 236.375 700 L 265.625 700 L 265.625 703 L 294.875 703 L 294.875 700 L 324.125 700 L 324.125 703 L 353.375 703 L 353.375 700 L 382.625 700 L 382.625 703 L 411.875 703 L 411.875 700 L 441.125 700 L 441.125 703 L 470.375 703 L 470.375 700 L 499.625 700 L 499.625 703 L 528.875 703 L 540 703 L 540 687.625 L 543 687.625 L 543 658.375 L 540 658.375 L 540 643 L 499.625 643 L 499.625 646 L 470.375 646 L 470.375 643 L 441.125 643 L 441.125 646 L 411.875 646 L 411.875 643 L 382.625 643 L 382.625 646 L 353.375 646 L 353.375 643 L 324.125 643 L 324.125 646 L 294.875 646 L 294.875 643 L 265.625 643 L 265.625 646 L 236.375 646 L 236.375 643 L 207.125 643 L 196 643 Z" id="left_outsideCutPath" stroke="#FF0000" stroke-width="0.1" style="stroke:#FF0000;stroke-width:0.1" vector-effect="non-scaling-stroke"/><path d="M 549 356 L 549 396.375 L 546 396.375 L 546 425.625 L 549 425.625 L 549 454.875 L 546 454.875 L 546 484.125 L 549 484.125 L 549 513.375 L 546 513.375 L 546 542.625 L 549 542.625 L 549 571.875 L 546 571.875 L 546 601.125 L 549 601.125 L 549 630.375 L 546 630.375 L 546 659.625 L 549 659.625 L 549 688.875 L 549 700 L 567.875 700 L 567.875 703 L 597.125 703 L 597.125 700 L 626.375 700 L 626.375 703 L 655.625 703 L 655.625 700 L 684.875 700 L 684.875 703 L 714.125 703 L 714.125 700 L 733 700 L 733 659.625 L 736 659.625 L 736 630.375 L 733 630.375 L 733 601.125 L 736 601.125 L 736 571.875 L 733 571.875 L 733 542.625 L 736 542.625 L 736 513.375 L 733 513.375 L 733 484.125 L 736 484.125 L 736 454.875 L 733 454.875 L 733 425.625 L 736 425.625 L 736 396.375 L 733 396.375 L 733 367.125 L 733 356 L 714.125 356 L 714.125 353 L 684.875 353 L 684.875 356 L 655.625 356 L 655.625 353 L 626.375 353 L 626.375 356 L 597.125 356 L 597.125 353 L 567.875 353 L 567.875 356 L 549 356 Z" id="top_outsideCutPath" stroke="#FF0000" stroke-width="0.1" style="stroke:#FF0000;stroke-width:0.1" vector-effect="non-scaling-stroke"/><path d="M 0 580 L 0 595.375 L 3 595.375 L 3 624.625 L 0 624.625 L 0 640 L 21.875 640 L 21.875 637 L 51.125 637 L 51.125 640 L 80.375 640 L 80.375 637 L 109.625 637 L 109.625 640 L 138.875 640 L 138.875 637 L 168.125 637 L 168.125 640 L 190 640 L 190 624.625 L 187 624.625 L 187 595.375 L 190 595.375 L 190 580 L 168.125 580 L 168.125 583 L 138.875 583 L 138.875 580 L 109.625 580 L 109.625 583 L 80.375 583 L 80.375 580 L 51.125 580 L 51.125 583 L 21.875 583 L 21.875 580 L 0 580 Z" id="back_outsideCutPath" stroke="#FF0000" stroke-width="0.1" style="stroke:#FF0000;stroke-width:0.1" vector-effect="non-scaling-stroke"/><path d="M 196 580 L 196 595.375 L 193 595.375 L 193 624.625 L 196 624.625 L 196 640 L 236.375 640 L 236.375 637 L 265.625 637 L 265.625 640 L 294.875 640 L 294.875 637 L 324.125 637 L 324.125 640 L 353.375 640 L 353.375 637 L 382.625 637 L 382.625 640 L 411.875 640 L 411.875 637 L 441.125 637 L 441.125 640 L 470.375 640 L 470.375 637 L 499.625 637 L 499.625 640 L 528.875 640 L 540 640 L 540 624.625 L 543 624.625 L 543 595.375 L 540 595.375 L 540 580 L 499.625 580 L 499.625 583 L 470.375 583 L 470.375 580 L 441.125 580 L 441.125 583 L 411.875 583 L 411.875 580 L 382.625 580 L 382.625 583 L 353.375 583 L 353.375 580 L 324.125 580 L 324.125 583 L 294.875 583 L 294.875 580 L 265.625 580 L 265.625 583 L 236.375 583 L 236.375 580 L 207.125 580 L 196 580 Z" id="right_outsideCutPath" stroke="#FF0000" stroke-width="0.1" style="stroke:#FF0000;stroke-width:0.1" vector-effect="non-scaling-stroke"/><path d="M 549 3 L 549 43.375 L 546 43.375 L 546 72.625 L 549 72.625 L 549 101.875 L 546 101.875 L 546 131.125 L 549 131.125 L 549 160.375 L 546 160.375 L 546 189.625 L 549 189.625 L 549 218.875 L 546 218.875 L 546 248.125 L 549 248.125 L 549 277.375 L 546 277.375 L 546 306.625 L 549 306.625 L 549 335.875 L 549 347 L 567.875 347 L 567.875 350 L 597.125 350 L 597.125 347 L 626.375 347 L 626.375 350 L 655.625 350 L 655.625 347 L 684.875 347 L 684.875 350 L 714.125 350 L 714.125 347 L 733 347 L 733 306.625 L 736 306.625 L 736 277.375 L 733 277.375 L 733 248.125 L 736 248.125 L 736 218.875 L 733 218.875 L 733 189.625 L 736 189.625 L 736 160.375 L 733 160.375 L 733 131.125 L 736 131.125 L 736 101.875 L 733 101.875 L 733 72.625 L 736 72.625 L 736 43.375 L 733 43.375 L 733 14.125 L 733 3 L 714.125 3 L 714.125 0 L 684.875 0 L 684.875 3 L 655.625 3 L 655.625 0 L 626.375 0 L 626.375 3 L 597.125 3 L 597.125 0 L 567.875 0 L 567.875 3 L 549 3 Z" id="bottom_outsideCutPath" stroke="#FF0000" stroke-width="0.1" style="stroke:#FF0000;stroke-width:0.1" vector-effect="non-scaling-stroke"/></g></svg>